# xmcd
#
# Track frame offsets:
#       150
#       16672
#       39109
#       56415
#       90884
#       112932
#       136525
#       158277
#       179078
#       206065
#
# Disc length: 3088 seconds
#
# Revision: 4
# Processed by: cddbd v1.5.2PL0 Copyright (c) Steve Scherf et al.
# Submitted via: FreeDbEdit v0.1
#
DISCID=650c0e0a
DTITLE=Various Artist - Acid Jazz Grooves [CD2]
DYEAR=2000
DGENRE=Acid Jazz
TTITLE0=James Taylor Quartet Feat. Alison Limerick - Love Will Keep Us T
TTITLE0=ogether
TTITLE1=Mother Earth - Jesse
TTITLE2=Jhelisa - Friendly Pressure
TTITLE3=4 To The Floor - Heavy Collar
TTITLE4=Big Cheese Allstars - I'm Gonna Love You (Meat Mix)
TTITLE5=Alyson Adams - The Gipper
TTITLE6=Nuff Kilo - Bee Hop
TTITLE7=Ohh Baby Ooh - Did You Know
TTITLE8=Dr. Villock - Herrvon
TTITLE9=Ebony - Feels Like
EXTD=YEAR: 2000 ID3G: 74
EXTT0=
EXTT1=
EXTT2=
EXTT3=
EXTT4=
EXTT5=
EXTT6=
EXTT7=
EXTT8=
EXTT9=
PLAYORDER=
